ffmpeg version 2022-04-14-git-ea84eb2db1-essentials_build-www.gyan.dev Copyright (c) 2000-2022 the FFmpeg developers
  built with gcc 11.2.0 (Rev10, Built by MSYS2 project)
  configuration: --enable-gpl --enable-version3 --enable-static --disable-w32threads --disable-autodetect --enable-fontconfig --enable-iconv --enable-gnutls --enable-libxml2 --enable-gmp --enable-bzlib --enable-lzma --enable-zlib --enable-libsrt --enable-libssh --enable-libzmq --enable-avisynth --enable-sdl2 --enable-libwebp --enable-libx264 --enable-libx265 --enable-libxvid --enable-libaom --enable-libopenjpeg --enable-libvpx --enable-mediafoundation --enable-libass --enable-libfreetype --enable-libfribidi --enable-libvidstab --enable-libvmaf --enable-libzimg --enable-amf --enable-cuda-llvm --enable-cuvid --enable-ffnvcodec --enable-nvdec --enable-nvenc --enable-d3d11va --enable-dxva2 --enable-libmfx --enable-libgme --enable-libopenmpt --enable-libopencore-amrwb --enable-libmp3lame --enable-libtheora --enable-libvo-amrwbenc --enable-libgsm --enable-libopencore-amrnb --enable-libopus --enable-libspeex --enable-libvorbis --enable-librubberband
  libavutil      57. 24.101 / 57. 24.101
  libavcodec     59. 26.100 / 59. 26.100
  libavformat    59. 22.100 / 59. 22.100
  libavdevice    59.  6.100 / 59.  6.100
  libavfilter     8. 31.100 /  8. 31.100
  libswscale      6.  6.100 /  6.  6.100
  libswresample   4.  6.100 /  4.  6.100
  libpostproc    56.  5.100 / 56.  5.100
Splitting the commandline.
Reading option '-v' ... matched as option 'v' (set logging level) with argument 'debug'.
Reading option '-nostdin' ... matched as option 'stdin' (enable or disable interaction on standard input) with argument 0.
Reading option '-progress' ... matched as option 'progress' (write program-readable progress information) with argument 'C:/Users/pedro/AppData/Local/Temp/KritaFFmpegProgress.cTsNvo'.
Reading option '-r' ... matched as option 'r' (set frame rate (Hz value, fraction or abbreviation)) with argument '12'.
Reading option '-start_number' ... matched as AVOption 'start_number' with argument '30'.
Reading option '-i' ... matched as input url with argument 'C:/Users/pedro/DEV/jump-tales/characters/drexa/logan/gifs/frame%04d.png'.
Reading option '-i' ... matched as input url with argument 'C:/Users/pedro/DEV/jump-tales/characters/drexa/logan/gifs/palette.png'.
Reading option '-lavfi' ... matched as option 'lavfi' (create a complex filtergraph) with argument 'scale=w=258:h=258[0:v];[0:v][1:v] paletteuse'.
Reading option '-y' ... matched as option 'y' (overwrite output files) with argument '1'.
Reading option 'C:/Users/pedro/DEV/jump-tales/characters/drexa/logan/gifs/andando.gif' ... matched as output url.
Finished splitting the commandline.
Parsing a group of options: global .
Applying option v (set logging level) with argument debug.
Applying option nostdin (enable or disable interaction on standard input) with argument 0.
Applying option progress (write program-readable progress information) with argument C:/Users/pedro/AppData/Local/Temp/KritaFFmpegProgress.cTsNvo.
[file @ 0000023af16cca80] Setting default whitelist 'file,crypto,data'
Applying option lavfi (create a complex filtergraph) with argument scale=w=258:h=258[0:v];[0:v][1:v] paletteuse.
Applying option y (overwrite output files) with argument 1.
Successfully parsed a group of options.
Parsing a group of options: input url C:/Users/pedro/DEV/jump-tales/characters/drexa/logan/gifs/frame%04d.png.
Applying option r (set frame rate (Hz value, fraction or abbreviation)) with argument 12.
Successfully parsed a group of options.
Opening an input file: C:/Users/pedro/DEV/jump-tales/characters/drexa/logan/gifs/frame%04d.png.
[image2 @ 0000023af170d100] Opening 'C:/Users/pedro/DEV/jump-tales/characters/drexa/logan/gifs/frame0030.png' for reading
[file @ 0000023af1711dc0] Setting default whitelist 'file,crypto,data'
[AVIOContext @ 0000023af1719f80] Statistics: 4807 bytes read, 0 seeks
[image2 @ 0000023af170d100] Opening 'C:/Users/pedro/DEV/jump-tales/characters/drexa/logan/gifs/frame0031.png' for reading
[file @ 0000023af171b580] Setting default whitelist 'file,crypto,data'
[AVIOContext @ 0000023af1b98100] Statistics: 4843 bytes read, 0 seeks
[image2 @ 0000023af170d100] Opening 'C:/Users/pedro/DEV/jump-tales/characters/drexa/logan/gifs/frame0032.png' for reading
[file @ 0000023af1b99600] Setting default whitelist 'file,crypto,data'
[AVIOContext @ 0000023af1b98100] Statistics: 4914 bytes read, 0 seeks
[image2 @ 0000023af170d100] Opening 'C:/Users/pedro/DEV/jump-tales/characters/drexa/logan/gifs/frame0033.png' for reading
[file @ 0000023af1b99600] Setting default whitelist 'file,crypto,data'
[AVIOContext @ 0000023af1b98100] Statistics: 4938 bytes read, 0 seeks
[image2 @ 0000023af170d100] Opening 'C:/Users/pedro/DEV/jump-tales/characters/drexa/logan/gifs/frame0034.png' for reading
[file @ 0000023af1b99940] Setting default whitelist 'file,crypto,data'
[AVIOContext @ 0000023af1b98100] Statistics: 4897 bytes read, 0 seeks
[image2 @ 0000023af170d100] Opening 'C:/Users/pedro/DEV/jump-tales/characters/drexa/logan/gifs/frame0035.png' for reading
[file @ 0000023af1b99b40] Setting default whitelist 'file,crypto,data'
[AVIOContext @ 0000023af1b98100] Statistics: 4852 bytes read, 0 seeks
[image2 @ 0000023af170d100] Opening 'C:/Users/pedro/DEV/jump-tales/characters/drexa/logan/gifs/frame0036.png' for reading
[file @ 0000023af1b99d40] Setting default whitelist 'file,crypto,data'
[AVIOContext @ 0000023af1b98100] Statistics: 4803 bytes read, 0 seeks
[image2 @ 0000023af170d100] Opening 'C:/Users/pedro/DEV/jump-tales/characters/drexa/logan/gifs/frame0037.png' for reading
[file @ 0000023af1b99d40] Setting default whitelist 'file,crypto,data'
[AVIOContext @ 0000023af1b98100] Statistics: 4860 bytes read, 0 seeks
[image2 @ 0000023af170d100] Opening 'C:/Users/pedro/DEV/jump-tales/characters/drexa/logan/gifs/frame0038.png' for reading
[file @ 0000023af1b99d40] Setting default whitelist 'file,crypto,data'
[AVIOContext @ 0000023af1719b00] Statistics: 4819 bytes read, 0 seeks
[image2 @ 0000023af170d100] Opening 'C:/Users/pedro/DEV/jump-tales/characters/drexa/logan/gifs/frame0039.png' for reading
[file @ 0000023af1b99d40] Setting default whitelist 'file,crypto,data'
[AVIOContext @ 0000023af1719b00] Statistics: 4876 bytes read, 0 seeks
[image2 @ 0000023af170d100] Opening 'C:/Users/pedro/DEV/jump-tales/characters/drexa/logan/gifs/frame0040.png' for reading
[file @ 0000023af1b99d40] Setting default whitelist 'file,crypto,data'
[AVIOContext @ 0000023af1719b00] Statistics: 4841 bytes read, 0 seeks
[image2 @ 0000023af170d100] Opening 'C:/Users/pedro/DEV/jump-tales/characters/drexa/logan/gifs/frame0041.png' for reading
[file @ 0000023af1b99d40] Setting default whitelist 'file,crypto,data'
[AVIOContext @ 0000023af1719b00] Statistics: 4832 bytes read, 0 seeks
Input #0, image2, from 'C:/Users/pedro/DEV/jump-tales/characters/drexa/logan/gifs/frame%04d.png':
  Duration: 00:00:00.48, start: 0.000000, bitrate: N/A
  Stream #0:0, 12, 1/25: Video: png, 1 reference frame, rgba(pc), 344x344 [SAR 3543:3543 DAR 1:1], 0/1, 25 fps, 25 tbr, 25 tbn
Successfully opened the file.
Parsing a group of options: input url C:/Users/pedro/DEV/jump-tales/characters/drexa/logan/gifs/palette.png.
Successfully parsed a group of options.
Opening an input file: C:/Users/pedro/DEV/jump-tales/characters/drexa/logan/gifs/palette.png.
[NULL @ 0000023af179ebc0] Opening 'C:/Users/pedro/DEV/jump-tales/characters/drexa/logan/gifs/palette.png' for reading
[file @ 0000023af170cfc0] Setting default whitelist 'file,crypto,data'
[png_pipe @ 0000023af179ebc0] Format png_pipe probed with size=2048 and score=99
[png_pipe @ 0000023af179ebc0] Before avformat_find_stream_info() pos: 0 bytes read:142 seeks:0 nb_streams:1
[png_pipe @ 0000023af179ebc0] After avformat_find_stream_info() pos: 142 bytes read:142 seeks:0 frames:1
Input #1, png_pipe, from 'C:/Users/pedro/DEV/jump-tales/characters/drexa/logan/gifs/palette.png':
  Duration: N/A, bitrate: N/A
  Stream #1:0, 1, 1/25: Video: png, 1 reference frame, rgba(pc), 16x16 [SAR 1:1 DAR 1:1], 0/1, 25 fps, 25 tbr, 25 tbn
Successfully opened the file.
[Parsed_scale_0 @ 0000023af1719fc0] Setting 'w' to value '258'
[Parsed_scale_0 @ 0000023af1719fc0] Setting 'h' to value '258'
[Parsed_scale_0 @ 0000023af1719fc0] w:258 h:258 flags:'' interl:0
Parsing a group of options: output url C:/Users/pedro/DEV/jump-tales/characters/drexa/logan/gifs/andando.gif.
Successfully parsed a group of options.
Opening an output file: C:/Users/pedro/DEV/jump-tales/characters/drexa/logan/gifs/andando.gif.
[file @ 0000023af170ffc0] Setting default whitelist 'file,crypto,data'
Successfully opened the file.
detected 4 logical cores
Stream mapping:
  Stream #0:0 (png) -> scale:default
  Stream #1:0 (png) -> paletteuse
  paletteuse:default -> Stream #0:0 (gif)
cur_dts is invalid st:0 (0) [init:0 i_done:0 finish:0] (this is harmless if it occurs once at the start per stream)
    Last message repeated 2 times
[image2 @ 0000023af170d100] Thread message queue blocking; consider raising the thread_queue_size option (current value: 8)
cur_dts is invalid st:0 (0) [init:0 i_done:0 finish:0] (this is harmless if it occurs once at the start per stream)
    Last message repeated 5 times
[Parsed_scale_0 @ 0000023aefef8c80] Setting 'w' to value '258'
[Parsed_scale_0 @ 0000023aefef8c80] Setting 'h' to value '258'
[Parsed_scale_0 @ 0000023aefef8c80] w:258 h:258 flags:'' interl:0
[graph 0 input from stream 0:0 @ 0000023af1d8e340] Setting 'video_size' to value '344x344'
[graph 0 input from stream 0:0 @ 0000023af1d8e340] Setting 'pix_fmt' to value '26'
[graph 0 input from stream 0:0 @ 0000023af1d8e340] Setting 'time_base' to value '1/12'
[graph 0 input from stream 0:0 @ 0000023af1d8e340] Setting 'pixel_aspect' to value '3543/3543'
[graph 0 input from stream 0:0 @ 0000023af1d8e340] Setting 'frame_rate' to value '12/1'
[graph 0 input from stream 0:0 @ 0000023af1d8e340] w:344 h:344 pixfmt:rgba tb:1/12 fr:12/1 sar:3543/3543
[graph 0 input from stream 1:0 @ 0000023af1d8e6c0] Setting 'video_size' to value '16x16'
[graph 0 input from stream 1:0 @ 0000023af1d8e6c0] Setting 'pix_fmt' to value '26'
[graph 0 input from stream 1:0 @ 0000023af1d8e6c0] Setting 'time_base' to value '1/25'
[graph 0 input from stream 1:0 @ 0000023af1d8e6c0] Setting 'pixel_aspect' to value '1/1'
[graph 0 input from stream 1:0 @ 0000023af1d8e6c0] Setting 'frame_rate' to value '25/1'
[graph 0 input from stream 1:0 @ 0000023af1d8e6c0] w:16 h:16 pixfmt:rgba tb:1/25 fr:25/1 sar:1/1
[format @ 0000023af1e24c00] Setting 'pix_fmts' to value 'rgb8|bgr8|rgb4_byte|bgr4_byte|gray|pal8'
[auto_scale_0 @ 0000023af1e23900] w:iw h:ih flags:'' interl:0
[Parsed_paletteuse_1 @ 0000023af171b5c0] auto-inserting filter 'auto_scale_0' between the filter 'graph 0 input from stream 1:0' and the filter 'Parsed_paletteuse_1'
[AVFilterGraph @ 0000023af179e0c0] query_formats: 6 queried, 5 merged, 1 already done, 0 delayed
[swscaler @ 0000023af1e26b80] [swscaler @ 0000023af1e33b40] Forcing full internal H chroma due to input having non subsampled chroma
[swscaler @ 0000023af1e26b80] [swscaler @ 0000023af1e63a40] Forcing full internal H chroma due to input having non subsampled chroma
[swscaler @ 0000023af1e26b80] [swscaler @ 0000023af1e97000] Forcing full internal H chroma due to input having non subsampled chroma
[swscaler @ 0000023af1e26b80] [swscaler @ 0000023af1ec3840] Forcing full internal H chroma due to input having non subsampled chroma
[swscaler @ 0000023af1e26b80] [swscaler @ 0000023af1ef6e40] Forcing full internal H chroma due to input having non subsampled chroma
[Parsed_scale_0 @ 0000023aefef8c80] w:344 h:344 fmt:rgba sar:3543/3543 -> w:258 h:258 fmt:bgra sar:1/1 flags:0x0
[swscaler @ 0000023af1f38840] [swscaler @ 0000023af1f46840] Forcing full internal H chroma due to input having non subsampled chroma
[swscaler @ 0000023af1f38840] [swscaler @ 0000023af1f54c00] Forcing full internal H chroma due to input having non subsampled chroma
[swscaler @ 0000023af1f38840] [swscaler @ 0000023af1f6bc40] Forcing full internal H chroma due to input having non subsampled chroma
[swscaler @ 0000023af1f38840] [swscaler @ 0000023af1f7ec40] Forcing full internal H chroma due to input having non subsampled chroma
[swscaler @ 0000023af1f38840] [swscaler @ 0000023af1f91c80] Forcing full internal H chroma due to input having non subsampled chroma
[auto_scale_0 @ 0000023af1e23900] w:16 h:16 fmt:rgba sar:1/1 -> w:16 h:16 fmt:bgra sar:1/1 flags:0x0
[Parsed_paletteuse_1 @ 0000023af171b5c0] [framesync @ 0000023af2197088] Selected 1/300 time base
[Parsed_paletteuse_1 @ 0000023af171b5c0] [framesync @ 0000023af2197088] Sync level 2
[swscaler @ 0000023af1ef4cc0] [swscaler @ 0000023af1f1ee80] Forcing full internal H chroma due to input having non subsampled chroma
[swscaler @ 0000023af1ef4cc0] [swscaler @ 0000023af1e2eb80] Forcing full internal H chroma due to input having non subsampled chroma
[swscaler @ 0000023af1ef4cc0] [swscaler @ 0000023af1e63200] Forcing full internal H chroma due to input having non subsampled chroma
[swscaler @ 0000023af1ef4cc0] [swscaler @ 0000023af1e9c4c0] Forcing full internal H chroma due to input having non subsampled chroma
[swscaler @ 0000023af1ef4cc0] [swscaler @ 0000023af1ecf500] Forcing full internal H chroma due to input having non subsampled chroma
[Parsed_scale_0 @ 0000023aefef8c80] w:344 h:344 fmt:rgba sar:3543/3543 -> w:258 h:258 fmt:bgra sar:1/1 flags:0x0
[swscaler @ 0000023af1fa8cc0] [swscaler @ 0000023af1e49bc0] Forcing full internal H chroma due to input having non subsampled chroma
[swscaler @ 0000023af1fa8cc0] [swscaler @ 0000023af1e6b200] Forcing full internal H chroma due to input having non subsampled chroma
[swscaler @ 0000023af1fa8cc0] [swscaler @ 0000023af1f0ee80] Forcing full internal H chroma due to input having non subsampled chroma
[swscaler @ 0000023af1fa8cc0] [swscaler @ 0000023af1e8c4c0] Forcing full internal H chroma due to input having non subsampled chroma
[swscaler @ 0000023af1fa8cc0] [swscaler @ 0000023af1ecf500] Forcing full internal H chroma due to input having non subsampled chroma
[Parsed_scale_0 @ 0000023aefef8c80] w:344 h:344 fmt:rgba sar:3543/3543 -> w:258 h:258 fmt:bgra sar:1/1 flags:0x0
[swscaler @ 0000023af1fa8cc0] [swscaler @ 0000023af1e8c4c0] Forcing full internal H chroma due to input having non subsampled chroma
[swscaler @ 0000023af1fa8cc0] [swscaler @ 0000023af1e63200] Forcing full internal H chroma due to input having non subsampled chroma
[swscaler @ 0000023af1fa8cc0] [swscaler @ 0000023af1f0ee80] Forcing full internal H chroma due to input having non subsampled chroma
[swscaler @ 0000023af1fa8cc0] [swscaler @ 0000023af1e2eb80] Forcing full internal H chroma due to input having non subsampled chroma
[swscaler @ 0000023af1fa8cc0] [swscaler @ 0000023af1ecf500] Forcing full internal H chroma due to input having non subsampled chroma
[Parsed_scale_0 @ 0000023aefef8c80] w:344 h:344 fmt:rgba sar:3543/3543 -> w:258 h:258 fmt:bgra sar:1/1 flags:0x0
[swscaler @ 0000023af1f46840] [swscaler @ 0000023af1f38800] Forcing full internal H chroma due to input having non subsampled chroma
[swscaler @ 0000023af1f46840] [swscaler @ 0000023af1f54c00] Forcing full internal H chroma due to input having non subsampled chroma
[swscaler @ 0000023af1f46840] [swscaler @ 0000023af1efa380] Forcing full internal H chroma due to input having non subsampled chroma
[swscaler @ 0000023af1f46840] [swscaler @ 0000023af1f6bc40] Forcing full internal H chroma due to input having non subsampled chroma
[swscaler @ 0000023af1f46840] [swscaler @ 0000023af1f7ec40] Forcing full internal H chroma due to input having non subsampled chroma
[auto_scale_0 @ 0000023af1e23900] w:16 h:16 fmt:rgba sar:1/1 -> w:16 h:16 fmt:bgra sar:1/1 flags:0x0
[swscaler @ 0000023af1f46840] [swscaler @ 0000023af1f38800] Forcing full internal H chroma due to input having non subsampled chroma
[swscaler @ 0000023af1f46840] [swscaler @ 0000023af1f54c00] Forcing full internal H chroma due to input having non subsampled chroma
[swscaler @ 0000023af1f46840] [swscaler @ 0000023af1efa380] Forcing full internal H chroma due to input having non subsampled chroma
[swscaler @ 0000023af1f46840] [swscaler @ 0000023af1f6bc40] Forcing full internal H chroma due to input having non subsampled chroma
[swscaler @ 0000023af1f46840] [swscaler @ 0000023af1f7ec40] Forcing full internal H chroma due to input having non subsampled chroma
[auto_scale_0 @ 0000023af1e23900] w:16 h:16 fmt:rgba sar:1/1 -> w:16 h:16 fmt:bgra sar:1/1 flags:0x0
[swscaler @ 0000023af1f46840] [swscaler @ 0000023af1f38800] Forcing full internal H chroma due to input having non subsampled chroma
[swscaler @ 0000023af1f46840] [swscaler @ 0000023af1f54c00] Forcing full internal H chroma due to input having non subsampled chroma
[swscaler @ 0000023af1f46840] [swscaler @ 0000023af1efa380] Forcing full internal H chroma due to input having non subsampled chroma
[swscaler @ 0000023af1f46840] [swscaler @ 0000023af1f6bc40] Forcing full internal H chroma due to input having non subsampled chroma
[swscaler @ 0000023af1f46840] [swscaler @ 0000023af1f7ec40] Forcing full internal H chroma due to input having non subsampled chroma
[auto_scale_0 @ 0000023af1e23900] w:16 h:16 fmt:rgba sar:1/1 -> w:16 h:16 fmt:bgra sar:1/1 flags:0x0
Output #0, gif, to 'C:/Users/pedro/DEV/jump-tales/characters/drexa/logan/gifs/andando.gif':
  Metadata:
    encoder         : Lavf59.22.100
  Stream #0:0, 0, 1/100: Video: gif, 1 reference frame, pal8(pc, gbr/unknown/unknown, progressive), 258x258 (0x0) [SAR 1:1 DAR 1:1], 0/1, q=2-31, 200 kb/s, 12 fps, 100 tbn
    Metadata:
      encoder         : Lavc59.26.100 gif
Clipping frame in rate conversion by 0.000008
frame=    1 fps=0.0 q=-0.0 size=       0kB time=00:00:00.01 bitrate=   0.0kbits/s speed=0.596x    [gif @ 0000023af1b9b080] 78x219 image at pos (84;39) [area:258x258]
[gif @ 0000023af1b9b080] 84x105 image at pos (84;153) [area:258x258]
[gif @ 0000023af1b9b080] 93x102 image at pos (75;156) [area:258x258]
[gif @ 0000023af1b9b080] 99x219 image at pos (66;39) [area:258x258]
[gif @ 0000023af1b9b080] 96x108 image at pos (63;150) [area:258x258]
[gif @ 0000023af1b9b080] 93x111 image at pos (63;147) [area:258x258]
[gif @ 0000023af1b9b080] 78x219 image at pos (69;39) [area:258x258]
[gif @ 0000023af1b9b080] 66x111 image at pos (81;147) [area:258x258]
[gif @ 0000023af1b9b080] 51x108 image at pos (96;150) [area:258x258]
[gif @ 0000023af1b9b080] 63x219 image at pos (84;39) [area:258x258]
[gif @ 0000023af1b9b080] 57x105 image at pos (84;153) [area:258x258]
[Parsed_paletteuse_1 @ 0000023af171b5c0] [framesync @ 0000023af2197088] Sync level 0
[out_0_0 @ 0000023af1e22ec0] EOF on sink link out_0_0:default.
No more output streams to write to, finishing.
frame=   12 fps=0.0 q=-0.0 Lsize=      14kB time=00:00:00.93 bitrate= 120.4kbits/s speed=8.51x    
[AVIOContext @ 0000023af170cc80] Statistics: 379 bytes written, 0 seeks, 2 writeouts
video:14kB audio:0kB subtitle:0kB other streams:0kB global headers:0kB muxing overhead: 0.143123%
Input file #0 (C:/Users/pedro/DEV/jump-tales/characters/drexa/logan/gifs/frame%04d.png):
  Input stream #0:0 (video): 12 packets read (58282 bytes); 12 frames decoded; 
  Total: 12 packets (58282 bytes) demuxed
Input file #1 (C:/Users/pedro/DEV/jump-tales/characters/drexa/logan/gifs/palette.png):
  Input stream #1:0 (video): 1 packets read (142 bytes); 1 frames decoded; 
  Total: 1 packets (142 bytes) demuxed
Output file #0 (C:/Users/pedro/DEV/jump-tales/characters/drexa/logan/gifs/andando.gif):
  Output stream #0:0 (video): 12 frames encoded; 12 packets muxed (13974 bytes); 
  Total: 12 packets (13974 bytes) muxed
[AVIOContext @ 0000023af1b9bd80] Statistics: 13994 bytes written, 0 seeks, 1 writeouts
13 frames successfully decoded, 0 decoding errors
[AVIOContext @ 0000023af179ee80] Statistics: 142 bytes read, 0 seeks
